<svg id="SvgjsSvg1043" width="288" height="288" xmlns="http://www.w3.org/2000/svg" version="1.1" xmlns:xlink="http://www.w3.org/1999/xlink" xmlns:svgjs="http://svgjs.com/svgjs"><defs id="SvgjsDefs1044"></defs><g id="SvgjsG1045" transform="matrix(1,0,0,1,0,0)"><svg xmlns="http://www.w3.org/2000/svg" enable-background="new 0 0 64 64" viewBox="0 0 64 64" width="288" height="288"><g transform="translate(128 482)" fill="#41b883" class="color000 svgShape"><polyline fill="#41b883" points="-105 -433.5 -108 -433.5 -108 -448.5 -114 -448.5 -114 -433.5 -117 -433.5 -117 -451.5 -105 -451.5 -105 -433.5" class="color134563 svgShape"></polyline><polyline fill="#41b883" points="-90 -433.5 -93 -433.5 -93 -457.5 -99 -457.5 -99 -433.5 -102 -433.5 -102 -460.5 -90 -460.5 -90 -433.5" class="color134563 svgShape"></polyline><polyline fill="#41b883" points="-75 -433.5 -78 -433.5 -78 -466.5 -84 -466.5 -84 -433.5 -87 -433.5 -87 -469.5 -75 -469.5 -75 -433.5" class="color134563 svgShape"></polyline><polygon fill="#41b883" points="-120 -433.5 -72 -433.5 -72 -430.5 -120 -430.5" class="color134563 svgShape"></polygon></g></svg></g></svg>