<svg id="SvgjsSvg1068" width="288" height="288" xmlns="http://www.w3.org/2000/svg" version="1.1" xmlns:xlink="http://www.w3.org/1999/xlink" xmlns:svgjs="http://svgjs.com/svgjs"><defs id="SvgjsDefs1069"></defs><g id="SvgjsG1070" transform="matrix(1,0,0,1,0,0)"><svg xmlns="http://www.w3.org/2000/svg" width="288" height="288" viewBox="0 0 16 16"><path d="M 8.5 1 C 4.3637879 1 0.99999462 4.3638 1 8.5 C 0.99999462 12.6362 4.3637879 16 8.5 16 C 12.636212 16 16.000005 12.6362 16 8.5 C 16.000005 4.3638 12.636212 1 8.5 1 z M 8.5 2 C 12.095771 2 15.000005 4.9043 15 8.5 C 15.000005 12.0958 12.095771 15 8.5 15 C 4.9042285 15 1.9999953 12.0958 2 8.5 C 1.9999953 4.9043 4.9042285 2 8.5 2 z M 8.4648438 4.4433594 A 0.5 0.5 0 0 0 8 4.9433594 A 0.5 0.5 0 0 0 8.5 5.4433594 A 0.5 0.5 0 0 0 9 4.9433594 A 0.5 0.5 0 0 0 8.5 4.4433594 A 0.5 0.5 0 0 0 8.4648438 4.4433594 z M 8.4921875 6.3164062 A 0.50005 0.50005 0 0 0 8 6.8222656 L 8 12.050781 A 0.50005 0.50005 0 1 0 9 12.050781 L 9 6.8222656 A 0.50005 0.50005 0 0 0 8.4921875 6.3164062 z " color="#000" enable-background="accumulate" font-family="sans-serif" font-weight="400" overflow="visible" style="line-height:normal;text-indent:0;text-align:start;text-decoration-line:none;text-decoration-style:solid;text-decoration-color:#000;text-transform:none;block-progression:tb;white-space:normal;isolation:auto;mix-blend-mode:normal;solid-color:#000;solid-opacity:1" fill="#41b883" class="color000 svgShape"></path></svg></g></svg>