<svg id="SvgjsSvg1031" width="288" height="288" xmlns="http://www.w3.org/2000/svg" version="1.1" xmlns:xlink="http://www.w3.org/1999/xlink" xmlns:svgjs="http://svgjs.com/svgjs"><defs id="SvgjsDefs1032"></defs><g id="SvgjsG1033" transform="matrix(1,0,0,1,0,0)"><svg xmlns="http://www.w3.org/2000/svg" enable-background="new 0 0 100 100" viewBox="0 0 100 100" width="288" height="288"><path fill="#41b883" d="M88.8 34.4H26.4c-3.4 0-6.2 2.8-6.2 6.2v6.8c0 .6.5 1.1 1.1 1.1h72.6c.6 0 1.1-.5 1.1-1.1v-6.8C95 37.1 92.2 34.4 88.8 34.4zM93.9 54.7H21.3c-.6 0-1.1.5-1.1 1.1v21.3c0 3.4 2.8 6.2 6.2 6.2h62.4c3.4 0 6.2-2.8 6.2-6.2V55.8C95 55.2 94.5 54.7 93.9 54.7zM40.5 72.3c0 .3-.3.6-.6.6h-9.4c-.3 0-.6-.3-.6-.6v-9.4c0-.3.3-.6.6-.6h9.4c.3 0 .6.3.6.6V72.3z" class="color1a1a1a svgShape"></path><path fill="#41b883" d="M11.2,64.5h3.7c0.4,0,0.7-0.3,0.7-0.7v-25c0-5.1,4.1-9.2,9.2-9.2h54.3c0.4,0,0.7-0.3,0.7-0.7v-6.1
	c0-3.4-2.8-6.2-6.2-6.2H14.2c-5.1,0-9.2,4.1-9.2,9.2v32.4C5,61.7,7.8,64.5,11.2,64.5z" class="color1a1a1a svgShape"></path></svg></g></svg>