<svg id="SvgjsSvg1019" width="288" height="288" xmlns="http://www.w3.org/2000/svg" version="1.1" xmlns:xlink="http://www.w3.org/1999/xlink" xmlns:svgjs="http://svgjs.com/svgjs"><defs id="SvgjsDefs1020"></defs><g id="SvgjsG1021" transform="matrix(1,0,0,1,0,0)"><svg xmlns="http://www.w3.org/2000/svg" id="Layer_1" x="0" y="0" version="1.1" viewBox="0 0 29 29" xml:space="preserve" width="288" height="288"><path fill="none" stroke="#41b883" stroke-miterlimit="10" stroke-width="2" d="M23.305 20.25a11.513 11.513 0 0 1-9.96 5.75c-6.309 0-11.5-5.191-11.5-11.5S7.037 3 13.345 3s11.5 5.191 11.5 11.5" class="colorStroke000 svgStroke"></path><path fill="none" stroke="#41b883" stroke-miterlimit="10" stroke-width="2" d="M13.345 9a2.5 2.5 0 0 1 2.5 2.5V15h-5v-3.5a2.5 2.5 0 0 1 2.5-2.5z" class="colorStroke000 svgStroke"></path><path d="M17.845 21h-9a1 1 0 01-1-1v-4a2 2 0 012-2h7a2 2 0 012 2v4a1 1 0 01-1 1zM26.775 14a.38.38 0 01.326.573l-1.929 3.241a.38.38 0 01-.652 0l-1.929-3.241a.379.379 0 01.325-.573h3.859z" fill="#41b883" class="color000 svgShape"></path></svg></g></svg>