<svg id="SvgjsSvg1011" width="288" height="288" xmlns="http://www.w3.org/2000/svg" version="1.1" xmlns:xlink="http://www.w3.org/1999/xlink" xmlns:svgjs="http://svgjs.com/svgjs"><defs id="SvgjsDefs1012"></defs><g id="SvgjsG1013" transform="matrix(1,0,0,1,0,0)"><svg xmlns="http://www.w3.org/2000/svg" viewBox="0 0 24 24" width="288" height="288"><g data-name="Layer 2" fill="#41b883" class="color000 svgShape"><g data-name="swap" fill="#41b883" class="color000 svgShape"><rect width="24" height="24" opacity="0" transform="rotate(-90 12 12)" fill="#41b883" class="color000 svgShape"></rect><path d="M4 9h13l-1.6 1.2a1 1 0 0 0-.2 1.4 1 1 0 0 0 .8.4 1 1 0 0 0 .6-.2l4-3a1 1 0 0 0 0-1.59l-3.86-3a1 1 0 0 0-1.23 1.58L17.08 7H4a1 1 0 0 0 0 2zM20 16H7l1.6-1.2a1 1 0 0 0-1.2-1.6l-4 3a1 1 0 0 0 0 1.59l3.86 3a1 1 0 0 0 .61.21 1 1 0 0 0 .79-.39 1 1 0 0 0-.17-1.4L6.92 18H20a1 1 0 0 0 0-2z" fill="#41b883" class="color000 svgShape"></path></g></g></svg></g></svg>