<svg id="SvgjsSvg1026" width="288" height="288" xmlns="http://www.w3.org/2000/svg" version="1.1" xmlns:xlink="http://www.w3.org/1999/xlink" xmlns:svgjs="http://svgjs.com/svgjs"><defs id="SvgjsDefs1027"></defs><g id="SvgjsG1028" transform="matrix(1,0,0,1,0,0)"><svg xmlns="http://www.w3.org/2000/svg" viewBox="0 0 24 24" width="288" height="288"><path d="M2 11H8a1 1 0 0 0 1-1V4A1 1 0 0 0 8 3H2A1 1 0 0 0 1 4v6A1 1 0 0 0 2 11zM3 5H7V9H3zM22 6H12a1 1 0 0 0 0 2H22a1 1 0 0 0 0-2zM22 16H12a1 1 0 0 0 0 2H22a1 1 0 0 0 0-2zM3.942 20h.012a1 1 0 0 0 .7-.289l4.046-4A1 1 0 1 0 7.3 14.289L3.971 17.578l-1.252-1.3a1 1 0 0 0-1.438 1.391L3.235 19.7A1 1 0 0 0 3.942 20z" fill="#41b883" class="color000 svgShape"></path></svg></g></svg>