<?xml version="1.0" standalone="no"?>
<!DOCTYPE svg PUBLIC "-//W3C//DTD SVG 20010904//EN"
 "http://www.w3.org/TR/2001/REC-SVG-20010904/DTD/svg10.dtd">
<svg version="1.0" xmlns="http://www.w3.org/2000/svg"
 width="750.000000pt" height="750.000000pt" viewBox="0 0 750.000000 750.000000"
 preserveAspectRatio="xMidYMid meet">
<metadata>
Created by potrace 1.14, written by Peter Selinger 2001-2017
</metadata>
<g transform="translate(0.000000,750.000000) scale(0.100000,-0.100000)"
fill="#000000" stroke="none">
<path d="M0 3750 l0 -3750 3750 0 3750 0 0 3750 0 3750 -3750 0 -3750 0 0
-3750z m3965 3401 c160 -42 311 -130 432 -250 86 -84 142 -164 195 -277 53
-114 77 -215 89 -374 18 -254 28 -335 53 -432 145 -554 593 -981 1147 -1092
81 -17 188 -29 309 -35 214 -12 302 -31 429 -93 306 -151 502 -429 541 -768
34 -292 -66 -578 -277 -786 -190 -188 -437 -284 -731 -284 -122 0 -296 -29
-426 -70 -405 -130 -750 -442 -917 -831 -79 -182 -115 -346 -124 -563 -8 -198
-32 -302 -105 -446 -124 -246 -349 -428 -621 -502 -120 -32 -365 -32 -484 0
-335 92 -595 355 -686 692 -33 123 -34 368 -2 486 95 346 362 607 710 694 51
13 144 23 263 29 206 11 296 26 448 76 141 47 236 93 350 168 127 84 220 164
305 262 175 202 282 412 343 671 26 109 28 136 28 314 0 164 -4 211 -23 300
-89 418 -313 747 -664 974 -225 147 -527 236 -800 236 -481 0 -873 316 -969
779 -26 127 -21 328 12 441 102 352 377 613 730 691 116 26 329 21 445 -10z
m-2440 -2490 c109 -29 244 -96 340 -168 162 -122 278 -293 342 -500 25 -81 27
-102 27 -263 1 -154 -2 -185 -22 -254 -99 -343 -368 -604 -708 -688 -125 -30
-322 -30 -448 1 -336 82 -598 335 -703 678 -24 79 -26 104 -27 253 -1 142 2
177 22 250 97 358 385 630 748 705 101 21 325 14 429 -14z"/>
</g>
</svg>
