<svg version="1.2" baseProfile="tiny-ps" xmlns="http://www.w3.org/2000/svg" viewBox="0 0 700 700" width="700" height="700">
	<title>safari-pinned-tab-svg</title>
	<style>
		tspan { white-space:pre }
		.shp0 { fill: #000000 } 
	</style>
	<g id="Layer">
		<path id="Layer" fill-rule="evenodd" class="shp0" d="M357.5 637.8C357.4 637.6 351.8 628.1 345 616.5C328.2 587.9 297.2 535.1 272.9 493.8C261.8 474.9 251.9 458.2 251 456.5C250 454.9 235.2 429.7 218 400.5C200.8 371.4 185.7 345.7 184.5 343.5C183.2 341.3 179.4 334.8 176 329C172.5 323.2 162.8 306.6 154.3 292.1C145.7 277.5 136.1 261.2 132.9 255.8C129.6 250.4 127 245.5 127 245C127 244.4 126.6 244 126.1 244C125.6 244 125 243.2 124.6 242.3C124 240.4 124 240.4 109.8 216.5C101.3 202.1 88.4 180.9 32.9 90C23.7 74.9 16.3 62.3 16.6 62.1C16.9 61.8 680.1 61.6 683.2 61.9C683.8 62 679.1 71.6 677 74.5C676.2 75.5 672.2 82.6 668.4 89.6C667.2 91.8 665.1 95.4 663.8 97.6C662.4 99.7 660 104 658.3 107C656.6 110 653.5 115.7 651.3 119.5C645.6 129.5 599.4 210.4 595.6 217C593.8 220 592.1 223.2 591.7 224C591.3 224.8 590.1 226.9 589 228.7C587.2 231.7 484.1 412.1 475.5 427.5C474.2 429.7 465.4 445 456 461.5C446.5 478 437.8 493.3 436.6 495.5C435.4 497.7 433.7 500.6 432.9 502C432 503.4 425.5 515.1 418.5 528C411.4 540.9 404.9 552.9 404 554.5C402.5 557.1 395.9 569.1 387 585.5C385.5 588.3 380.9 596.6 376.8 604C372.7 611.4 367.6 620.7 365.6 624.5C363.5 628.4 360.9 633 359.8 634.8C358.7 636.6 357.7 638 357.5 637.8ZM352.9 365.2C353.4 365.7 378 323.9 404 278.4C411.1 266 427.7 237.2 438.2 219.1C444.7 207.9 450 198.6 450 198.6C450 198.3 257.6 199 257.4 199.3C257.2 199.4 260.5 205.4 264.6 212.5C268.8 219.7 273.8 228.4 275.7 232C277.7 235.6 279.9 239.2 280.6 240.1C281.4 240.9 282 241.9 282 242.2C282 242.5 285.9 249.4 290.6 257.6C299.9 273.6 302 277.2 304.8 282.3C305.9 284 316.9 303.3 329.5 325C342 346.7 352.5 364.8 352.9 365.2Z" />
	</g>
</svg>