<svg version="1.2" baseProfile="tiny-ps" xmlns="http://www.w3.org/2000/svg" viewBox="0 0 12 12" width="12" height="12">
	<title>data-svg</title>
	<style>
		tspan { white-space:pre }
		.shp0 { fill: #41b883 } 
	</style>
	<path id="Layer" class="shp0" d="M7.57 9.13L4.77 4.13L3.31 7L0 7L0 11C0 11.27 0.1 11.52 0.29 11.71C0.48 11.89 0.73 12 1 12L11 12C11.27 12 11.52 11.89 11.71 11.71C11.9 11.52 12 11.27 12 11L12 6.5L9.2 6.5L7.57 9.13Z" />
	<path id="Layer" class="shp0" d="M11 0L1 0C0.73 0 0.48 0.1 0.29 0.29C0.1 0.48 0 0.73 0 1L0 6L2.69 6L4.73 2.02L7.61 7.16L8.64 5.5L12 5.5L12 1C12 0.73 11.89 0.48 11.71 0.29C11.52 0.1 11.27 0 11 0Z" />
</svg>