<svg version="1.2" baseProfile="tiny-ps" xmlns="http://www.w3.org/2000/svg" viewBox="0 0 750 750" width="750" height="750">
	<title>logo-svg-svg</title>
	<style>
		tspan { white-space:pre }
		.shp0 { fill: #1c344e } 
	</style>
	<g id="Layer">
		<g id="SvgjsG24841">
			<g id="Layer">
				<g id="Layer">
					<path id="Layer" fill-rule="evenodd" class="shp0" d="M224.47 377.19C224.47 323.87 181.32 280.65 128.1 280.65C74.87 280.65 31.73 323.87 31.73 377.19C31.73 430.51 74.87 473.73 128.1 473.73C181.32 473.73 224.47 430.51 224.47 377.19ZM468.56 623.83C468.58 540.92 535.68 473.71 618.46 473.71C619.31 473.71 620.17 473.71 621.02 473.73C674.06 473.5 716.98 430.37 716.98 377.19C716.98 323.87 673.83 280.65 620.61 280.65C620.47 280.65 620.32 280.65 620.18 280.64C619.6 280.65 619.03 280.65 618.46 280.65C535.67 280.65 468.56 213.43 468.56 130.5C468.56 129.64 468.57 128.78 468.58 127.93C468.35 74.81 425.29 31.83 372.21 31.83C318.99 31.83 275.84 75.05 275.84 128.36C275.84 181.54 318.75 224.67 371.78 224.9C372.63 224.89 373.49 224.88 374.34 224.88C457.13 224.88 524.24 292.11 524.24 375.03C524.24 375.62 524.23 376.21 524.23 376.79C524.23 376.93 524.24 377.06 524.24 377.19C524.24 377.38 524.23 377.58 524.21 377.79C522.74 459.45 456.21 525.19 374.34 525.19C373.76 525.19 373.19 525.19 372.61 525.18C372.48 525.19 372.34 525.19 372.21 525.19C318.99 525.19 275.84 568.41 275.84 621.73C275.84 675.04 318.99 718.27 372.21 718.27C424.73 718.27 467.44 676.18 468.56 623.83Z" />
				</g>
			</g>
		</g>
	</g>
</svg>